<mxfile host="app.diagrams.net" agent="Mozilla/5.0 (X11; Linux x86_64) AppleWebKit/537.36 (KHTML, like Gecko) Chrome/126.0.0.0 Safari/537.36" version="24.7.7">
  <diagram name="Página-1" id="udjitffrLRbzCFd8pKAJ">
    <mxGraphModel dx="2261" dy="793" grid="1" gridSize="10" guides="1" tooltips="1" connect="1" arrows="1" fold="1" page="1" pageScale="1" pageWidth="827" pageHeight="1169" math="0" shadow="0">
      <root>
        <mxCell id="0" />
        <mxCell id="1" parent="0" />
        <mxCell id="sloY48J-F2cMAuir_p5C-1" value="&lt;p style=&quot;margin:0px;margin-top:4px;text-align:center;&quot;&gt;&lt;i&gt;&amp;lt;&amp;lt; Abstract &amp;gt;&amp;gt;&lt;/i&gt;&lt;br&gt;&lt;b&gt;Funcionário&lt;/b&gt;&lt;/p&gt;&lt;hr size=&quot;1&quot; style=&quot;border-style:solid;&quot;&gt;&lt;p style=&quot;margin:0px;margin-left:4px;&quot;&gt;# cpf: String&lt;br&gt;# nome: String&lt;/p&gt;&lt;p style=&quot;margin:0px;margin-left:4px;&quot;&gt;- valorHora: Double&lt;/p&gt;&lt;hr size=&quot;1&quot; style=&quot;border-style:solid;&quot;&gt;&lt;p style=&quot;margin:0px;margin-left:4px;&quot;&gt;+ &lt;i&gt;calculaSalario(): Double&lt;/i&gt;&lt;/p&gt;&lt;p style=&quot;margin:0px;margin-left:4px;&quot;&gt;&lt;i&gt;+ toString(): String&lt;/i&gt;&lt;/p&gt;" style="verticalAlign=top;align=left;overflow=fill;html=1;whiteSpace=wrap;" vertex="1" parent="1">
          <mxGeometry x="390" y="240" width="190" height="140" as="geometry" />
        </mxCell>
        <mxCell id="sloY48J-F2cMAuir_p5C-4" style="edgeStyle=orthogonalEdgeStyle;rounded=0;orthogonalLoop=1;jettySize=auto;html=1;endArrow=block;endFill=0;endSize=12;" edge="1" parent="1" source="sloY48J-F2cMAuir_p5C-3" target="sloY48J-F2cMAuir_p5C-1">
          <mxGeometry relative="1" as="geometry">
            <Array as="points">
              <mxPoint x="154" y="440" />
              <mxPoint x="480" y="440" />
            </Array>
          </mxGeometry>
        </mxCell>
        <mxCell id="sloY48J-F2cMAuir_p5C-3" value="&lt;p style=&quot;margin:0px;margin-top:4px;text-align:center;&quot;&gt;&lt;b&gt;Secretária&lt;/b&gt;&lt;/p&gt;&lt;hr size=&quot;1&quot; style=&quot;border-style:solid;&quot;&gt;&lt;p style=&quot;margin:0px;margin-left:4px;&quot;&gt;- quantidadeHorasTrabalhadas: Double&lt;br&gt;- quantidadeHorasExtraTrabalhada: Double&lt;/p&gt;&lt;hr size=&quot;1&quot; style=&quot;border-style:solid;&quot;&gt;&lt;p style=&quot;margin:0px;margin-left:4px;&quot;&gt;+ getValorExtra(): Double&lt;/p&gt;" style="verticalAlign=top;align=left;overflow=fill;html=1;whiteSpace=wrap;" vertex="1" parent="1">
          <mxGeometry x="-11" y="480" width="330" height="90" as="geometry" />
        </mxCell>
        <mxCell id="sloY48J-F2cMAuir_p5C-10" style="edgeStyle=orthogonalEdgeStyle;rounded=0;orthogonalLoop=1;jettySize=auto;html=1;dashed=1;dashPattern=8 8;endArrow=block;endFill=0;endSize=10;" edge="1" parent="1" source="sloY48J-F2cMAuir_p5C-5" target="sloY48J-F2cMAuir_p5C-8">
          <mxGeometry relative="1" as="geometry">
            <Array as="points">
              <mxPoint x="480" y="650" />
              <mxPoint x="480" y="650" />
            </Array>
          </mxGeometry>
        </mxCell>
        <mxCell id="sloY48J-F2cMAuir_p5C-5" value="&lt;p style=&quot;margin:0px;margin-top:4px;text-align:center;&quot;&gt;&lt;b&gt;Professor&lt;/b&gt;&lt;/p&gt;&lt;hr size=&quot;1&quot; style=&quot;border-style:solid;&quot;&gt;&lt;p style=&quot;margin:0px;margin-left:4px;&quot;&gt;- quantidadeAulasPorSemana: Int&lt;/p&gt;&lt;hr size=&quot;1&quot; style=&quot;border-style:solid;&quot;&gt;&lt;p style=&quot;margin:0px;margin-left:4px;&quot;&gt;+ getValorExtra(): Double&lt;/p&gt;" style="verticalAlign=top;align=left;overflow=fill;html=1;whiteSpace=wrap;" vertex="1" parent="1">
          <mxGeometry x="340" y="480" width="330" height="90" as="geometry" />
        </mxCell>
        <mxCell id="sloY48J-F2cMAuir_p5C-17" style="edgeStyle=orthogonalEdgeStyle;rounded=0;orthogonalLoop=1;jettySize=auto;html=1;endArrow=diamondThin;endFill=0;endSize=10;" edge="1" parent="1" source="sloY48J-F2cMAuir_p5C-8" target="sloY48J-F2cMAuir_p5C-16">
          <mxGeometry relative="1" as="geometry" />
        </mxCell>
        <mxCell id="sloY48J-F2cMAuir_p5C-8" value="&lt;p style=&quot;margin:0px;margin-top:4px;text-align:center;&quot;&gt;&lt;i&gt;&amp;lt;&amp;lt;Interface&amp;gt;&amp;gt;&lt;/i&gt;&lt;br&gt;&lt;b&gt;IBonus&lt;/b&gt;&lt;/p&gt;&lt;hr size=&quot;1&quot; style=&quot;border-style:solid;&quot;&gt;&lt;p style=&quot;margin:0px;margin-left:4px;&quot;&gt;&lt;br&gt;&lt;/p&gt;&lt;hr size=&quot;1&quot; style=&quot;border-style:solid;&quot;&gt;&lt;p style=&quot;margin:0px;margin-left:4px;&quot;&gt;+ getValorBonus(): Double&lt;/p&gt;" style="verticalAlign=top;align=left;overflow=fill;html=1;whiteSpace=wrap;" vertex="1" parent="1">
          <mxGeometry x="380" y="690" width="190" height="100" as="geometry" />
        </mxCell>
        <mxCell id="sloY48J-F2cMAuir_p5C-9" value="" style="endArrow=none;html=1;rounded=0;entryX=0.427;entryY=0.002;entryDx=0;entryDy=0;entryPerimeter=0;" edge="1" parent="1">
          <mxGeometry width="50" height="50" relative="1" as="geometry">
            <mxPoint x="409" y="440" as="sourcePoint" />
            <mxPoint x="479.9100000000003" y="480.22" as="targetPoint" />
            <Array as="points">
              <mxPoint x="480" y="440" />
            </Array>
          </mxGeometry>
        </mxCell>
        <mxCell id="sloY48J-F2cMAuir_p5C-14" style="edgeStyle=orthogonalEdgeStyle;rounded=0;orthogonalLoop=1;jettySize=auto;html=1;endArrow=block;endFill=0;dashed=1;endSize=12;dashPattern=8 8;" edge="1" parent="1" source="sloY48J-F2cMAuir_p5C-11" target="sloY48J-F2cMAuir_p5C-8">
          <mxGeometry relative="1" as="geometry">
            <Array as="points">
              <mxPoint x="820" y="740" />
            </Array>
          </mxGeometry>
        </mxCell>
        <mxCell id="sloY48J-F2cMAuir_p5C-11" value="&lt;p style=&quot;margin:0px;margin-top:4px;text-align:center;&quot;&gt;&lt;b&gt;Coordenador&lt;/b&gt;&lt;/p&gt;&lt;hr size=&quot;1&quot; style=&quot;border-style:solid;&quot;&gt;&lt;p style=&quot;margin:0px;margin-left:4px;&quot;&gt;- quantidadeHorasCoordenacaoSemana: Double&lt;br&gt;&lt;/p&gt;&lt;p style=&quot;margin:0px;margin-left:4px;&quot;&gt;- quantidadeCursosCordenacao: Int&lt;/p&gt;&lt;hr size=&quot;1&quot; style=&quot;border-style:solid;&quot;&gt;&lt;p style=&quot;margin:0px;margin-left:4px;&quot;&gt;+ getValorExtra(): Double&lt;/p&gt;" style="verticalAlign=top;align=left;overflow=fill;html=1;whiteSpace=wrap;" vertex="1" parent="1">
          <mxGeometry x="689" y="478" width="330" height="92" as="geometry" />
        </mxCell>
        <mxCell id="sloY48J-F2cMAuir_p5C-13" value="" style="endArrow=none;html=1;rounded=0;entryX=0.426;entryY=0.001;entryDx=0;entryDy=0;entryPerimeter=0;" edge="1" parent="1" target="sloY48J-F2cMAuir_p5C-11">
          <mxGeometry width="50" height="50" relative="1" as="geometry">
            <mxPoint x="480" y="440" as="sourcePoint" />
            <mxPoint x="830" y="470" as="targetPoint" />
            <Array as="points">
              <mxPoint x="830" y="440" />
            </Array>
          </mxGeometry>
        </mxCell>
        <mxCell id="sloY48J-F2cMAuir_p5C-16" value="&lt;p style=&quot;margin:0px;margin-top:4px;text-align:center;&quot;&gt;ControleBonus&lt;br&gt;&lt;/p&gt;&lt;hr size=&quot;1&quot; style=&quot;border-style:solid;&quot;&gt;&lt;p style=&quot;margin:0px;margin-left:4px;&quot;&gt;- funcionarioBonus: List&amp;lt;IBonus&amp;gt;&lt;br&gt;&lt;/p&gt;&lt;hr size=&quot;1&quot; style=&quot;border-style:solid;&quot;&gt;&lt;p style=&quot;margin:0px;margin-left:4px;&quot;&gt;+ calculaTotalBonus(): Double&lt;/p&gt;&lt;p style=&quot;margin:0px;margin-left:4px;&quot;&gt;+ adicionarFuncionario(funcionario: IBonus)&lt;br&gt;+ exibirFuncionarios(): Unit&lt;/p&gt;" style="verticalAlign=top;align=left;overflow=fill;html=1;whiteSpace=wrap;" vertex="1" parent="1">
          <mxGeometry x="20" y="670" width="260" height="140" as="geometry" />
        </mxCell>
        <mxCell id="sloY48J-F2cMAuir_p5C-20" value="&lt;div&gt;&lt;b&gt;Q: &lt;/b&gt;Todos os funcionários da escola devem ter o método calculaSalario(). Dentro desse cenário, considere os funcionários: Secretaria, Professor e Coordenador. Como fazer para que as classes que representam esses 3 funcionários sejam obrigadas a implementar o método calculaSalario() ? Seria melhor usar classe abstrata ou interface?&lt;br&gt;&lt;br&gt;&lt;/div&gt;&lt;div&gt;&lt;b&gt;R: &lt;/b&gt;Para o calcular Salario, optei por utilizar uma classe Abstrata de Funcionário uma vez que todos os funcionários possuem atributos genericos similares e independente do tipo de funcionário, todos precisam calcular o seu salario&lt;/div&gt;&lt;div&gt;&lt;br&gt;&lt;/div&gt;&lt;div&gt;&lt;b style=&quot;background-color: initial;&quot;&gt;Q:&amp;nbsp;&lt;/b&gt;Se quisermos obrigar que a classe que representa o Professor e a classe que representa o Coordenador implementem o método: getValorBonus(), qual seria a melhor forma: classe abstrata ou interface? Justifique.&lt;/div&gt;&lt;div&gt;&lt;b style=&quot;background-color: initial;&quot;&gt;R:&amp;nbsp;&lt;/b&gt;Como o bonus é algo exclusivo de professor e cordenador, optei por utilizar uma interface assim a secretária não é obrigada a implementar o metódo&lt;/div&gt;&lt;div&gt;&lt;br&gt;&lt;/div&gt;&lt;div&gt;&lt;b style=&quot;background-color: initial;&quot;&gt;Q:&amp;nbsp;&lt;/b&gt;Considere também a classe ControleBonus, que terá como atributo um ou mais List para conter todos os objetos que recebem bônus. Pergunta: é necessário ter 2 List ou apenas um?&lt;/div&gt;&lt;div&gt;&lt;b style=&quot;background-color: initial;&quot;&gt;R:&amp;nbsp;&lt;/b&gt;Apenas uma, como somente os funcionários que possuem bonus irão fazer parte dessa lista, basta apenas criar uma lista do tipo IBonus&lt;/div&gt;" style="text;html=1;align=center;verticalAlign=middle;whiteSpace=wrap;rounded=0;" vertex="1" parent="1">
          <mxGeometry x="-320" y="90" width="530" height="310" as="geometry" />
        </mxCell>
      </root>
    </mxGraphModel>
  </diagram>
</mxfile>
